#!OML:ASF E:/inclinewalkrobotboard/Project1/Captureday1/Session1/subject1.ASF
:FULLY-SPECIFIED
:DEGREES
126
root 0 0 0 1.1080277811663548 -3.740146174872744 1.802842258781192
lowerback 11.995271959657966 0.8620096927252807 -0.07695242494652796
upperback -4.182588109111667 1.0910308346007518 -0.5396426921937114
thorax -11.297415682977434 0.500388239006187 -0.7746341851357921
lowerneck -5.922303123150584 1.4701737447138536 4.520564286528187
upperneck 18.04112282037708 2.9155306818131814 -8.266385373227532
head 6.615945140666942 1.0617491337955847 -3.194310199836408
rclavicle -1.22841645555668E-15 3.966711964116558E-16
rhumerus 19.641562079979636 14.047555612890452 -47.808075361209234
rradius 72.07069471044662
rwrist 27.218726828503392
rhand -34.88332439979429 -57.52893892822652
rfingers 7.125020000000043
rthumb -8.02483842963627 -87.30846379286828
lclavicle 1.081655595515897E-15 -2.7189013881385054E-15
lhumerus 20.59916584007688 -12.313188375799148 45.617203007778755
lradius 69.53474486622893
lwrist -22.20390520044793
lhand -44.756875288077126 -70.15149997007511
lfingers 7.125020000000015
lthumb -17.564697464290628 -41.04487955418953
rfemur -25.19092123833261 -2.1624289255804774 16.896490217956735
rtibia 54.19822519155138
rfoot -28.226717441238485 -16.764422383437037
rtoes -17.85513079625546
lfemur -27.442728205405466 2.482262992191747 -18.264880937607344
ltibia 53.66144487982167
lfoot -31.88571916675795 -3.2530646348789367
ltoes -19.563979948792102
127
root 0 0 0 1.1079922489224265 -3.740164380292696 1.8028370213330582
lowerback 11.995299031509875 0.8620103234320786 -0.07693809684749925
upperback -4.18254808955673 1.091035243732946 -0.5396335790864217
thorax -11.297386972884402 0.5003896760539924 -0.7746339567516372
lowerneck -5.922194805057233 1.4701446970987502 4.520601395191675
upperneck 18.040974833230155 2.915492253036106 -8.26646801360872
head 6.6158788855987956 1.0617320848640306 -3.194345063266981
rclavicle -1.2339128969713029E-15 3.9912383234868787E-16
rhumerus 19.641337513201695 14.047362311311925 -47.80817470849986
rradius 72.0705501071754
rwrist 27.218716025642696
rhand -34.883342078654834 -57.52891496917229
rfingers 7.125020000000043
rthumb -8.024844966935627 -87.30846815451496
lclavicle 1.0735083407818356E-15 -2.7157062405801847E-15
lhumerus 20.59941102231111 -12.31355544357781 45.617052592588756
lradius 69.53483707790895
lwrist -22.203848256512998
lhand -44.75679927542883 -70.15035981306275
lfingers 7.125020000000015
lthumb -17.56460651159791 -41.04374766515443
rfemur -25.191180048793754 -2.1624503534705135 16.8964670832674
rtibia 54.198145779561905
rfoot -28.22682200944061 -16.764542644913153
rtoes -17.85486042819536
lfemur -27.442763490441234 2.482334355176551 -18.264949120163916
ltibia 53.66169210291558
lfoot -31.885874831448422 -3.2530059561977365
ltoes -19.563636716492603
128
root 0 0 0 1.107954285481639 -3.740187664418981 1.8028307179249636
lowerback 11.995321420898103 0.862009981714898 -0.07692248465284152
upperback -4.182508683175516 1.0910386152698013 -0.5396234354305534
thorax -11.297356057614808 0.5003905670736537 -0.7746330841142788
lowerneck -5.922074268279781 1.4701151184342813 4.520639041378525
upperneck 18.040826789934304 2.9154537301067935 -8.266553169506626
head 6.615810544348952 1.0617150950285055 -3.194380939962492
rclavicle -1.2351107413672424E-15 3.9921204395871855E-16
rhumerus 19.641357803757757 14.047387639917055 -47.80817816550129
rradius 72.07058568847121
rwrist 27.21873765726848
rhand -34.88338917747946 -57.529047343139624
rfingers 7.125020000000043
rthumb -8.024894226711021 -87.30860389310254
lclavicle 1.0715898020344584E-15 -2.7156377690707385E-15
lhumerus 20.59949250348555 -12.313587073018004 45.61699705028028
lradius 69.53488079325834
lwrist -22.203872418623313
lhand -44.75682022785787 -70.150342809164
lfingers 7.125020000000015
lthumb -17.564616514458496 -41.04372743640522
rfemur -25.19115704154082 -2.1624444902628794 16.896485114645017
rtibia 54.19812264932839
rfoot -28.226904772071954 -16.76458129106572
rtoes -17.854860399964128
lfemur -27.442830971242948 2.4823201200763974 -18.264937057554548
ltibia 53.661658666166346
lfoot -31.88598728779504 -3.2529271323161417
ltoes -19.563704604080176
129
root 0 0 0 1.1079189027535938 -3.7402265534714063 1.8028185935360899
lowerback 11.99531952265723 0.8620074836286495 -0.0769071516443596
upperback -4.182488415903419 1.0910385044889943 -0.5396126815245963
thorax -11.297332063919315 0.5003900252435722 -0.7746301812902543
lowerneck -5.921979812151626 1.4701007312402312 4.520663783571737
upperneck 18.040753138955818 2.915438234639401 -8.266610371920358
head 6.615770378680075 1.0617081497412602 -3.194404342365821
rclavicle -1.234661496449741E-15 3.987276560150007E-16
rhumerus 19.641423209865845 14.047458412423177 -47.808144013102755
rradius 72.07060353818527
rwrist 27.218708964291608
rhand -34.88324031837682 -57.52882673520568
rfingers 7.125020000000043
rthumb -8.024750197885439 -87.3083814207977
lclavicle 1.0722439430167446E-15 -2.7162586990102583E-15
lhumerus 20.59951280567762 -12.313676332233843 45.616878353849415
lradius 69.53492322388196
lwrist -22.20389875620049
lhand -44.756750010779754 -70.14993409405625
lfingers 7.125020000000015
lthumb -17.564548851104348 -41.04330940707336
rfemur -25.191158667524043 -2.1624449008960247 16.896488825944303
rtibia 54.1981264299457
rfoot -28.226923001947725 -16.764580539132194
rtoes -17.854862664934522
lfemur -27.44280238356929 2.4823380127393544 -18.264931093859182
ltibia 53.66164149196419
lfoot -31.88600684397936 -3.2529105237650375
ltoes -19.563839401836994
130
root 0 0 0 1.1078998666262845 -3.7403783884904525 1.8027768827155704
lowerback 11.995072825461296 0.8619720481988278 -0.07692477918253526
upperback -4.182655332658332 1.0909842371556768 -0.5395993396560173
thorax -11.297374843099284 0.5003658882109584 -0.7745931031352247
lowerneck -5.922080336917478 1.4702393853766584 4.520568856178644
upperneck 18.041385370300237 2.915652890315288 -8.26640426526505
head 6.615988011353135 1.0618031505446373 -3.1943093438265855
rclavicle -1.250462494419503E-15 4.1766845085668827E-16
rhumerus 19.64208545931674 14.047415167162779 -47.8078613882351
rradius 72.07168263310434
rwrist 27.21966946490258
rhand -34.88487723126956 -57.53248407174886
rfingers 7.125020000000043
rthumb -8.026280964152857 -87.31209959305919
lclavicle 1.0373740316179932E-15 -2.692267495180106E-15
lhumerus 20.599754139751212 -12.312243279849358 45.61958748655541
lradius 69.53457239696401
lwrist -22.203120694224385
lhand -44.75893699881779 -70.16118008867744
lfingers 7.125020000000015
lthumb -17.566504674612865 -41.05510710952561
rfemur -25.190047201666395 -2.1624728348216538 16.895615874195904
rtibia 54.19657098772055
rfoot -28.22533900867689 -16.763847726463375
rtoes -17.85633632019367
lfemur -27.441174655398335 2.481703082717675 -18.26402684035951
ltibia 53.659055149875535
lfoot -31.882806875665317 -3.25257660381747
ltoes -19.567287625377034
131
root 0 0 0 1.108020407594411 -3.7401550153320966 1.8028394951190447
lowerback 11.995270485313108 0.8620090394390597 -0.07694923227993666
upperback -4.182584732365681 1.0910306116828572 -0.5396404063928775
thorax -11.29741099378834 0.5003880391244607 -0.774633469704793
lowerneck -5.922284206837988 1.4701714046234595 4.520568819448109
upperneck 18.041110678306193 2.915528459689591 -8.266396068651144
head 6.615937923307991 1.061748133458984 -3.194314521239337
rclavicle -1.2283738279775695E-15 3.9667177215171335E-16
rhumerus 19.641580744979493 14.047573088946308 -47.80806308198939
rradius 72.07070486470509
rwrist 27.218725590529225
rhand -34.88329356940732 -57.528902468968425
rfingers 7.125020000000043
rthumb -8.024808303747092 -87.30842612325833
lclavicle 1.0817177587087076E-15 -2.718888440461146E-15
lhumerus 20.599174469633958 -12.31320808962757 45.61718429758764
lradius 69.53475687480561
lwrist -22.20390744139014
lhand -44.75686397930798 -70.15142901936373
lfingers 7.125020000000015
lthumb -17.56468693004982 -41.044808106507645
rfemur -25.190918549462694 -2.1624284881309226 16.89649167444028
rtibia 54.198227069438296
rfoot -28.22672125825589 -16.764421589955553
rtoes -17.855131155192964
lfemur -27.442719279131317 2.4822685187318347 -18.264878697074558
ltibia 53.66144369433439
lfoot -31.88572045930596 -3.2530599271453173
ltoes -19.56401649106393
132
root 0 0 0 1.1079878789926614 -3.7401697066937225 1.8028353541032174
lowerback 11.995298051166106 0.8620099236580212 -0.07693620347107749
upperback -4.182546162008516 1.0910350932665405 -0.5396322155993678
thorax -11.29738421271571 0.5003895497146832 -0.7746335184746047
lowerneck -5.922183672682104 1.4701433715939003 4.520604036997441
upperneck 18.040967933161475 2.915491031918336 -8.26647425626738
head 6.615874715739441 1.0617315336347077 -3.1943475804664136
rclavicle -1.2338708701158274E-15 3.991148143033099E-16
rhumerus 19.641349356525968 14.047373628732451 -47.80816740138664
rradius 72.07055623633451
rwrist 27.218714515989493
rhand -34.883322078721676 -57.52889019877891
rfingers 7.125020000000043
rthumb -8.024825441508579 -87.30844257722356
lclavicle 1.0735714960387341E-15 -2.7157108105016753E-15
lhumerus 20.599415649851224 -12.313567917539311 45.61704018075856
lradius 69.53484435528856
lwrist -22.203849854618667
lhand -44.75679136140896 -70.15031229467371
lfingers 7.125020000000015
lthumb -17.5645991311157 -41.04369973120929
rfemur -25.19117864179271 -2.162450110398895 16.89646786163767
rtibia 54.198147072670515
rfoot -28.226824175689462 -16.76454211073252
rtoes -17.854860648584626
lfemur -27.442757785881092 2.4823379720498915 -18.264947909159787
ltibia 53.661691618854235
lfoot -31.885875469640833 -3.2530032295517906
ltoes -19.56365884859914
133
root 0 0 0 1.1079516405688423 -3.740190921949649 1.8028296982238485
lowerback 11.99532077972986 0.8620097333211925 -0.0769213406444576
upperback -4.182507552804712 1.0910385145212242 -0.5396226072580002
thorax -11.297354399360227 0.5003904863703185 -0.7746328119130257
lowerneck -5.922067565695211 1.4701143457285917 4.52064061387175
upperneck 18.040822754089092 2.915453036336835 -8.266556895244811
head 6.615808071180812 1.061714781431084 -3.194382439417133
rclavicle -1.2350866162660606E-15 3.9920984989435374E-16
rhumerus 19.641365293236042 14.047394758528913 -47.80817354055078
rradius 72.07058966524157
rwrist 27.21873680638734
rhand -34.88337676743087 -57.52903219752392
rfingers 7.125020000000043
rthumb -8.024882102336274 -87.30858822623796
lclavicle 1.0716265750828293E-15 -2.7156363016726746E-15
lhumerus 20.59949551058613 -12.313594912439978 45.61698947719525
lradius 69.53488542039292
lwrist -22.20387332443415
lhand -44.756815381332785 -70.15031349477547
lfingers 7.125020000000015
lthumb -17.564612008114434 -41.0436978989029
rfemur -25.191156192939076 -2.162444334647663 16.896485573469214
rtibia 54.198123456792665
rfoot -28.22690612348125 -16.76458096321983
rtoes -17.8548604908271
lfemur -27.442827354053545 2.4823224208810126 -18.264936322774535
ltibia 53.66165827814203
lfoot -31.88598766563237 -3.252925388579366
ltoes -19.563718557288666
